<svg width="36" height="36" viewBox="0 0 36 36" fill="none" xmlns="http://www.w3.org/2000/svg">
<rect width="36" height="36" rx="4" fill="white" fill-opacity="0.2"/>
<g clip-path="url(#clip0_521_2061)">
<path d="M18 20.5C18.663 20.5 19.2989 20.2366 19.7678 19.7678C20.2366 19.2989 20.5 18.663 20.5 18C20.5 17.337 20.2366 16.7011 19.7678 16.2322C19.2989 15.7634 18.663 15.5 18 15.5C17.337 15.5 16.7011 15.7634 16.2322 16.2322C15.7634 16.7011 15.5 17.337 15.5 18C15.5 18.663 15.7634 19.2989 16.2322 19.7678C16.7011 20.2366 17.337 20.5 18 20.5Z" stroke="#334758" stroke-width="1.5" stroke-linecap="round" stroke-linejoin="round"/>
<path d="M24.3517 16.6625L23.4376 14.4542L24.6667 13L23.0001 11.3333L21.5542 12.5692L19.2984 11.6417L18.7792 9.66667H17.1509L16.6242 11.6675L14.4201 12.5967L13.0001 11.3333L11.3334 13L12.5442 14.4908L11.6442 16.705L9.66675 17.1667V18.8333L11.6676 19.3792L12.5967 21.5833L11.3334 23L13.0001 24.6667L14.4926 23.45L16.6642 24.3433L17.1667 26.3333H18.8334L19.3367 24.3442L21.5459 23.4292C21.9142 23.6925 23.0001 24.6667 23.0001 24.6667L24.6667 23L23.4301 21.5417L24.3451 19.3317L26.3334 18.815V17.1667L24.3517 16.6625Z" stroke="#334758" stroke-width="1.5" stroke-linecap="round" stroke-linejoin="round"/>
</g>
<rect x="0.5" y="0.5" width="35" height="35" rx="3.5" stroke="#334758" stroke-opacity="0.1"/>
<defs>
<clipPath id="clip0_521_2061">
<rect width="20" height="20" fill="white" transform="translate(8 8)"/>
</clipPath>
</defs>
</svg>
