<svg width="40" height="40" viewBox="0 0 40 40" fill="none" xmlns="http://www.w3.org/2000/svg">
<path d="M17.2083 17.375L21.8958 20.5L26.5833 17.375" stroke="black" stroke-width="1.5" stroke-linecap="round" stroke-linejoin="round"/>
<path d="M29.7084 27.7917H15.125C14.5725 27.7917 14.0426 27.5722 13.6519 27.1815C13.2612 26.7908 13.0417 26.2609 13.0417 25.7083V15.2917C13.0417 14.7391 13.2612 14.2092 13.6519 13.8185C14.0426 13.4278 14.5725 13.2083 15.125 13.2083H28.6667C29.2192 13.2083 29.7491 13.4278 30.1398 13.8185C30.5305 14.2092 30.75 14.7391 30.75 15.2917V17.375" stroke="black" stroke-width="1.5" stroke-linecap="round"/>
<path d="M35.9583 22.5833H29.7083M29.7083 22.5833L32.8333 19.4583M29.7083 22.5833L32.8333 25.7083" stroke="black" stroke-width="1.5" stroke-linecap="round" stroke-linejoin="round"/>
</svg>
