<svg width="80" height="80" viewBox="0 0 80 80" fill="none" xmlns="http://www.w3.org/2000/svg">
<rect width="80" height="80" fill="#009DE2"/>
<path d="M77.4958 0H3.50416C2.12115 0 1 1.13534 1 2.53586V77.4641C1 78.8647 2.12115 80 3.50416 80H77.4958C78.8789 80 80 78.8647 80 77.4641V2.53586C80 1.13534 78.8789 0 77.4958 0Z" fill="#009DE2"/>
<path fill-rule="evenodd" clip-rule="evenodd" d="M61.7027 62.4071L49.0755 62.4515L39.4971 62.4832V54.9771H54.2904L61.7027 62.4071Z" fill="#EDEDED"/>
<g style="mix-blend-mode:soft-light">
<path fill-rule="evenodd" clip-rule="evenodd" d="M56.5817 57.272C54.456 59.5034 51.8985 61.2667 49.0692 62.4515H39.4971V54.9771H54.2904L56.5817 57.272Z" fill="#231F20"/>
</g>
<path fill-rule="evenodd" clip-rule="evenodd" d="M39.5029 17.5161C35.1108 17.5149 30.817 18.8326 27.1644 21.3027C23.5119 23.7728 20.6648 27.2843 18.9831 31.3931C17.3015 35.5019 16.8608 40.0235 17.7169 44.3859C18.573 48.7483 20.6874 52.7557 23.7927 55.9011C26.898 59.0466 30.8546 61.1889 35.1623 62.057C39.4699 62.9252 43.935 62.4803 47.993 60.7785C52.0509 59.0767 55.5193 56.1945 57.9595 52.4965C60.3998 48.7984 61.7023 44.4506 61.7023 40.0028C61.7023 34.0401 59.3637 28.3215 55.2006 24.1046C51.0376 19.8877 45.3911 17.5178 39.5029 17.5161V17.5161ZM39.5029 54.863C36.5988 54.8642 33.7596 53.9932 31.3444 52.3602C28.9293 50.7271 27.0466 48.4053 25.9347 45.6886C24.8228 42.9718 24.5316 39.9822 25.0978 37.0978C25.6641 34.2133 27.0624 31.5638 29.1159 29.4843C31.1694 27.4048 33.7858 25.9888 36.6342 25.4154C39.4825 24.842 42.4348 25.1369 45.1176 26.2629C47.8004 27.3889 50.0931 29.2953 51.7058 31.7411C53.3184 34.1868 54.1785 37.062 54.1773 40.0028C54.1757 43.9435 52.6291 47.7222 49.8774 50.5087C47.1258 53.2951 43.3943 54.8613 39.5029 54.863V54.863Z" fill="#EDEDED"/>
</svg>
