<svg width="40" height="40" viewBox="0 0 40 40" fill="none" xmlns="http://www.w3.org/2000/svg">
<path d="M14.2917 15.2917H24.7083M14.2917 20.5H24.7083M14.2917 25.7083H20.5417M26.7917 11.125H12.2083C11.6558 11.125 11.1259 11.3445 10.7352 11.7352C10.3445 12.1259 10.125 12.6558 10.125 13.2083V27.7917C10.125 28.3442 10.3445 28.8741 10.7352 29.2648C11.1259 29.6555 11.6558 29.875 12.2083 29.875H26.7917C27.3442 29.875 27.8741 29.6555 28.2648 29.2648C28.6555 28.8741 28.875 28.3442 28.875 27.7917V13.2083C28.875 12.6558 28.6555 12.1259 28.2648 11.7352C27.8741 11.3445 27.3442 11.125 26.7917 11.125Z" stroke="black" stroke-width="1.5" stroke-linecap="round" stroke-linejoin="round"/>
</svg>
